<svg width="170" height="170" viewBox="0 0 32 32" version="4.20"  xmlns:inkscape="http://www.inkscape.org/namespaces/inkscape"  xmlns="http://www.w3.org/2000/svg" xmlns:svg="http://www.w3.org/2000/svg"> <g inkscape:label="Layer 1" inkscape:groupmode="layer" id="layer1" transform="translate(-70.386987,-115.00452)"> <path style="fill:currentColor;fill-opacity:1;stroke-width:0.0579178" d="m 84.153377,136.23621 c -0.37478,-0.2019 -0.89825,-0.55672 -1.45884,-0.98884 -0.25484,-0.19643 -0.66152,-0.49015 -0.90373,-0.65272 -0.46668,-0.31321 -0.64392,-0.57118 -0.64434,-0.73107 -1.4e-4,-0.0533 -0.0509,-0.45046 0.23492,-1.21145 l 0.37858,-1.15982 0.084,-0.82668 c 0.0822,-0.80925 0.0223,-0.81912 -0.18537,-1.42686 -0.30271,-0.88591 -0.6012,-1.49853 -1.06573,-2.18731 -0.88395,-1.31066 -1.97499,-2.31671 -2.51241,-2.31671 -0.2126,0 -0.50925,0.24 -1.29673,1.04912 -0.92048,0.94577 -1.30793,1.42588 -1.55466,1.9264 -0.27642,0.56076 -0.38241,1.0076 -0.38241,1.61215 0,0.79129 -0.12603,0.87022 -1.64419,1.02967 -0.58532,0.0615 -1.23021,0.13871 -1.43307,0.17163 -0.60684,0.0985 -1.02128,0.0783 -1.21419,-0.0591 -0.0925,-0.0659 -0.16822,-0.15968 -0.16822,-0.20844 0,-0.1952 0.20436,-0.5004 0.42884,-0.64044 0.13047,-0.0814 0.4525,-0.32832 0.71564,-0.54871 1.94677,-1.63061 3.61448,-3.65534 4.45095,-5.4038 0.55211,-1.15409 0.64498,-1.85539 0.33374,-2.52049 -0.21193,-0.45288 -0.50987,-0.82952 -1.44236,-1.82334 -1.1546,-1.23055 -1.16209,-1.25249 -0.76129,-2.22984 0.37865,-0.92333 0.70452,-1.4207 1.16688,-1.78097 0.35881,-0.27958 0.41498,-0.30407 0.69758,-0.30407 0.27209,0 0.32453,0.0204 0.45728,0.1782 0.0825,0.098 0.14994,0.23033 0.14994,0.29404 0,0.0685 -0.25025,0.37545 -0.61205,0.75078 -0.65295,0.67737 -0.77797,0.88403 -0.77797,1.2859 0,0.71805 0.48843,1.25113 1.14942,1.25447 0.34838,0.002 0.55455,-0.1398 0.75712,-0.51986 0.0952,-0.17866 0.2291,-0.37548 0.29751,-0.43739 0.28536,-0.25825 1.12388,0.003 1.44898,0.45227 0.0932,0.12872 0.16954,0.26034 0.16954,0.29248 0,0.10466 0.43502,0.63803 1.05814,1.29739 0.75247,0.79622 0.74047,0.77849 1.89428,2.79687 1.15497,2.02039 1.20333,2.09141 2.10997,3.0986 0.88514,0.98331 1.13481,1.41577 1.13481,1.96562 0,0.32816 -0.0156,0.37243 -0.19099,0.54244 -0.23011,0.22303 -0.3852,0.23182 -0.71192,0.0404 -0.32585,-0.19097 -0.4987,-0.48549 -1.32569,-2.25882 -0.81198,-1.74113 -1.72492,-3.53074 -2.08549,-4.08813 -0.1922,-0.29711 -0.31962,-0.43073 -0.47115,-0.49404 -0.61036,-0.25503 -0.90533,0.28749 -0.6625,1.21848 0.14445,0.5538 0.31888,0.87813 1.25798,2.33902 1.88541,2.93299 2.18225,3.69733 2.53847,6.53636 0.27527,2.19382 0.35779,2.46112 1.01514,3.28833 0.87431,1.10022 0.91158,1.44456 0.1643,1.51797 -0.2593,0.0255 -0.35565,0.006 -0.58874,-0.11968 z"/>  </g> </svg>